<svg xmlns="http://www.w3.org/2000/svg" aria-hidden="true" focusable="false" data-prefix="fas" data-icon="search" role="img" width="31.589576289191427" height="30.58955496745888" style=""><rect id="backgroundrect" width="100%" height="100%" x="0" y="0" fill="none" stroke="none" class="" style=""/><g class="currentLayer" style=""><title>Layer 1</title><path fill="#b6b6b6" d="M30.175256513939548,25.67046712275326 L24.21788408930634,19.889248301568486 c-0.2688884243816397,-0.2609376599331143 -0.6333816218767511,-0.405903026562622 -1.0158007143306385,-0.405903026562622 H22.228109748882208 c1.6491823362073894,-2.0469109768086513 2.629131260620476,-4.621495888148713 2.629131260620476,-7.422226771430806 C24.857241009502683,5.398510253282875 19.294238273962538,0 12.428620504751342,0 S0,5.398510253282875 0,12.061118503575058 s5.563002735540143,12.061118503575058 12.428620504751342,12.061118503575058 c2.8860690883629316,0 5.5391015422617755,-0.9509728050895717 7.648381849077748,-2.5513904526793394 v0.9451741904243917 c0,0.3711113385715404 0.14938245798979985,0.7248268331475397 0.4182708823714394,0.9857644930806537 l5.957372424633215,5.781218821184776 c0.5616780420416472,0.5450697785269498 1.4699233866196297,0.5450697785269498 2.0256261303416845,0 l1.6910094244445335,-1.6410079502460297 c0.5616780420416472,-0.5450697785269498 0.5616780420416472,-1.4264592076343579 0.005975298319591996,-1.9715289861613075 zM12.428620504751342,19.483345275005863 c-4.224535911951538,0 -7.648381849077748,-3.3168075884831416 -7.648381849077748,-7.422226771430806 c0,-4.099620568282485 3.4178706388066185,-7.422226771430806 7.648381849077748,-7.422226771430806 c4.224535911951538,0 7.648381849077748,3.3168075884831416 7.648381849077748,7.422226771430806 c0,4.099620568282485 -3.4178706388066185,7.422226771430806 -7.648381849077748,7.422226771430806 z" id="svg_1" class="" fill-opacity="1" opacity="1"/></g></svg>