<svg xmlns="http://www.w3.org/2000/svg" aria-hidden="true" focusable="false" data-prefix="fas" data-icon="search" role="img" width="71.46308776379851" height="70.46308776379851" style=""><rect id="backgroundrect" width="100%" height="100%" x="0" y="0" fill="none" stroke="none" class="selected" style=""/><g class="currentLayer" style=""><title>Layer 1</title><path fill="#b6b6b6" d="M69.75677518857788,59.342958799387986 L55.984992047387365,45.97839364849804 c-0.6215950264328722,-0.6032150770211113 -1.4642016178196546,-0.9383345642550618 -2.3482478776352953,-0.9383345642550618 H51.38518885178411 c3.81244949545495,-4.731887159743383 6.077818036232529,-10.68360925301835 6.077818036232529,-17.158117746378277 C57.463006888016636,12.479849704592324 44.602896452260985,0 28.731503444008318,0 S0,12.479849704592324 0,27.8819413378647 s12.860110435755644,27.8819413378647 28.731503444008318,27.8819413378647 c6.671786617046162,0 12.80485754451717,-2.1983838362547163 17.68092519631281,-5.898102975317533 v2.184979056765359 c0,0.857905887318914 0.3453305702404846,1.6755974361697537 0.9669255966733568,2.2788125131908648 l13.771783141190525,13.364565150889955 c1.2984429441042222,1.2600492719996548 3.398052811166368,1.2600492719996548 4.68268253246097,0 l3.909142055122286,-3.7935525954883227 c1.2984429441042222,-1.2600492719996548 1.2984429441042222,-3.297575754382075 0.01381322280961939,-4.5576250263817295 zM28.731503444008318,45.040059084242976 c-9.765948526400905,0 -17.68092519631281,-7.667533867912794 -17.68092519631281,-17.158117746378277 c0,-9.477179098976128 7.901163447102287,-17.158117746378277 17.68092519631281,-17.158117746378277 c9.765948526400905,0 17.68092519631281,7.667533867912794 17.68092519631281,17.158117746378277 c0,9.477179098976128 -7.901163447102287,17.158117746378277 -17.68092519631281,17.158117746378277 z" id="svg_1" class="" fill-opacity="1" opacity="1"/></g></svg>