<svg xmlns="http://www.w3.org/2000/svg" aria-hidden="true" focusable="false" data-prefix="fas" data-icon="search" role="img" width="152.86577194094963" height="151.83221524621194" style=""><rect id="backgroundrect" width="100%" height="100%" x="0" y="0" fill="none" stroke="none" class="selected" style=""/><g class="currentLayer" style=""><title>Layer 1</title><path fill="#b6b6b6" d="M147.51259178880287,125.49080190775847 L118.38980881584517,97.22915078916006 c-1.3144686397022038,-1.2756011036478725 -3.09630390685408,-1.984268383452246 -4.96577041665277,-1.984268383452246 H108.66274088204885 c8.06207432350685,-10.006381990837754 12.852582254865993,-22.592312880163433 12.852582254865993,-36.28376472598393 C121.51532313691484,26.39076949991487 94.32042750218702,0 60.75766156845742,0 S0,26.39076949991487 0,58.961117679723884 s27.194895634727814,58.961117679723884 60.75766156845742,58.961117679723884 c14.108630066136987,0 27.0780539778654,-4.64885735551669 37.3893301959738,-12.472544124556975 v4.620510664324517 c0,1.8141882362991966 0.7302603553901132,3.543336399021868 2.044728995092317,4.8189375026697405 l29.12278297295772,28.261651118598422 c2.745778936266826,2.664588972064445 7.185761897038715,2.664588972064445 9.902330419089935,0 l8.266547223016083,-8.02211360738551 c2.745778936266826,-2.664588972064445 2.745778936266826,-6.973286033275037 0.029210414215604538,-9.637875005339481 zM60.75766156845742,95.24488240570781 c-20.651762850432405,0 -37.3893301959738,-16.21430736192407 -37.3893301959738,-36.28376472598393 c0,-20.04111067286769 16.708356931325792,-36.28376472598393 37.3893301959738,-36.28376472598393 c20.651762850432405,0 37.3893301959738,16.21430736192407 37.3893301959738,36.28376472598393 c0,20.04111067286769 -16.708356931325792,36.28376472598393 -37.3893301959738,36.28376472598393 z" id="svg_1" class="" fill-opacity="1" opacity="1"/></g></svg>